<svg xmlns="http://www.w3.org/2000/svg" viewBox="0 0 128 128" role="img" aria-labelledby="title desc">
  <title id="title">Rare Treats 518 temporary heart mark</title>
  <desc id="desc">A pastel layered heart used as a temporary website brand mark.</desc>
  <defs>
    <linearGradient id="outer" x1="0" y1="0" x2="1" y2="1">
      <stop offset="0" stop-color="#9ce8e4"/>
      <stop offset=".52" stop-color="#d7c4f3"/>
      <stop offset="1" stop-color="#f4a8c8"/>
    </linearGradient>
    <linearGradient id="inner" x1="1" y1="0" x2="0" y2="1">
      <stop offset="0" stop-color="#f7b8d2"/>
      <stop offset="1" stop-color="#d7c4f3"/>
    </linearGradient>
  </defs>
  <path fill="url(#outer)" d="M64 112C50 97 18 76 18 45 18 25 31 14 48 14c9 0 17 4 22 12 6-8 14-12 23-12 17 0 30 11 30 31 0 31-32 52-59 67Z"/>
  <path fill="url(#inner)" opacity=".94" d="M68 101C56 88 30 70 30 47c0-15 10-23 22-23 8 0 14 4 19 11 4-7 11-11 18-11 13 0 23 8 23 23 0 24-25 41-44 54Z"/>
  <path fill="none" stroke="#52265f" stroke-width="4" stroke-linecap="round" d="M44 55c9-8 20-11 31-7 8 3 13 9 16 16" opacity=".8"/>
</svg>
